<?xml version="1.0" encoding="iso-8859-1"?>
<!-- Generator: Adobe Illustrator 18.1.1, SVG Export Plug-In . SVG Version: 6.00 Build 0)  -->
<svg xmlns="http://www.w3.org/2000/svg" xmlns:xlink="http://www.w3.org/1999/xlink" version="1.1" id="Capa_1" x="0px" y="0px" viewBox="0 0 32 32" style="enable-background:new 0 0 32 32;" xml:space="preserve" width="512px" height="512px">
<g>
	<g>
		<rect style="fill:#fff;" x="15" width="4" height="6" fill="#006DF0"/>
		<polygon style="fill:#fff;" points="25,13 29,9 25,5 25,8 1,8 1,10.001 25,10.001   " fill="#006DF0"/>
		<polygon style="fill:#fff;" points="13,17 9,13 9,16 1,16 1,17.999 9,17.999 9,21   " fill="#006DF0"/>
		<path style="fill:#fff;" d="M22,14c-1.055,0-2.061,0.19-3,0.522V12h-4v5.348c-1.249,1.545-2,3.51-2,5.652s0.751,4.105,2,5.65    V32h4v-0.523C19.939,31.809,20.945,32,22,32c4.971-0.002,8.998-4.029,9-9C30.998,18.027,26.971,14,22,14z M22,29.883    c-3.801-0.01-6.876-3.084-6.885-6.883c0.009-3.801,3.084-6.876,6.885-6.885c3.799,0.008,6.874,3.084,6.883,6.885    C28.874,26.799,25.799,29.873,22,29.883z" fill="#006DF0"/>
		<path style="fill:#fff;" d="M25.337,21.998c-0.063-0.211-0.146-0.412-0.245-0.605l1.188-1.188l-1.416-1.414l-1.165,1.166    c-0.22-0.123-0.452-0.221-0.697-0.295V18h-2v1.662c-0.229,0.068-0.446,0.158-0.651,0.27l-1.142-1.141l-1.415,1.416l1.141,1.139    C18.82,21.553,18.73,21.77,18.662,22H17v2h1.662c0.072,0.246,0.172,0.479,0.295,0.697l-1.165,1.164l1.413,1.416l1.188-1.188    c0.192,0.103,0.395,0.183,0.605,0.246V28H23v-1.666c0.229-0.068,0.445-0.158,0.65-0.27l1.213,1.213l1.414-1.416l-1.213-1.211    c0.111-0.205,0.201-0.422,0.271-0.65H27v-2.002C27,21.998,25.337,21.998,25.337,21.998z M21.999,24.498    c-0.829-0.002-1.498-0.67-1.501-1.5c0.003-0.828,0.672-1.498,1.501-1.5c0.829,0.002,1.498,0.672,1.5,1.5    C23.497,23.828,22.828,24.496,21.999,24.498z" fill="#006DF0"/>
	</g>
</g>
<g>
</g>
<g>
</g>
<g>
</g>
<g>
</g>
<g>
</g>
<g>
</g>
<g>
</g>
<g>
</g>
<g>
</g>
<g>
</g>
<g>
</g>
<g>
</g>
<g>
</g>
<g>
</g>
<g>
</g>
</svg>
