<?xml version="1.0" encoding="iso-8859-1"?>
<!-- Generator: Adobe Illustrator 18.0.0, SVG Export Plug-In . SVG Version: 6.00 Build 0)  -->
<!DOCTYPE svg PUBLIC "-//W3C//DTD SVG 1.1//EN" "http://www.w3.org/Graphics/SVG/1.1/DTD/svg11.dtd">
<svg version="1.1" id="Capa_1" xmlns="http://www.w3.org/2000/svg" xmlns:xlink="http://www.w3.org/1999/xlink" x="0px" y="0px"
	 viewBox="0 0 346.707 346.707" style="enable-background:new 0 0 346.707 346.707;" xml:space="preserve">
<g>
	<path style="fill:#fff;"  d="M57.439,303.285h43c2.762,0,5-2.239,5-5v-95.426c0-2.761-2.238-5-5-5h-43c-2.762,0-5,2.239-5,5v95.426
		C52.439,301.046,54.678,303.285,57.439,303.285z"/>
	<path style="fill:#fff;"  d="M158.109,220.572h80c5.514,0,10-4.486,10-10c0-5.514-4.486-10-10-10h-80c-5.514,0-10,4.486-10,10
		C148.109,216.086,152.596,220.572,158.109,220.572z"/>
	<path style="fill:#fff;"  d="M158.109,260.572h80c5.514,0,10-4.486,10-10c0-5.514-4.486-10-10-10h-80c-5.514,0-10,4.486-10,10
		C148.109,256.086,152.596,260.572,158.109,260.572z"/>
	<path style="fill:#fff;"  d="M158.109,300.572h80c5.514,0,10-4.486,10-10c0-5.514-4.486-10-10-10h-80c-5.514,0-10,4.486-10,10
		C148.109,296.086,152.596,300.572,158.109,300.572z"/>
	<path style="fill:#fff;"  d="M336.871,9.744H65.992c-5.424,0-9.836,4.413-9.836,9.838V63.4h-18.32C32.412,63.4,28,67.813,28,73.236v43.797H9.836
		c-5.424,0-9.836,4.413-9.836,9.838v200.256c0,5.423,4.412,9.836,9.836,9.836h270.879c5.424,0,9.836-4.413,9.836-9.836V283.33
		h18.164c5.424,0,9.836-4.413,9.836-9.838v-43.818h18.32c5.424,0,9.836-4.413,9.836-9.836V19.582
		C346.707,14.157,342.295,9.744,336.871,9.744z M277.1,30.709c5.523,0,10,4.477,10,10c0,5.523-4.477,10-10,10
		c-5.523,0-10-4.477-10-10C267.1,35.186,271.576,30.709,277.1,30.709z M260.941,147.998c0,5.523-4.477,10-10,10s-10-4.477-10-10
		c0-5.521,4.477-10,10-10S260.941,142.477,260.941,147.998z M248.941,104.365c-5.523,0-10-4.478-10-10c0-5.523,4.477-10,10-10
		c5.523,0,10,4.477,10,10C258.941,99.887,254.465,104.365,248.941,104.365z M247.1,30.709c5.523,0,10,4.477,10,10
		c0,5.523-4.477,10-10,10c-5.523,0-10-4.477-10-10C237.1,35.186,241.576,30.709,247.1,30.709z M218.941,84.365
		c5.523,0,10,4.477,10,10c0,5.522-4.477,10-10,10c-5.523,0-10-4.478-10-10C208.941,88.842,213.418,84.365,218.941,84.365z
		 M230.941,147.998c0,5.523-4.477,10-10,10c-5.523,0-10-4.477-10-10c0-5.521,4.477-10,10-10
		C226.465,137.998,230.941,142.477,230.941,147.998z M190.941,137.998c5.523,0,10,4.479,10,10c0,5.523-4.477,10-10,10
		c-5.523,0-10-4.477-10-10C180.941,142.477,185.418,137.998,190.941,137.998z M280.551,326.963H10V180.666h270.551V326.963z
		 M278.941,104.365c-5.523,0-10-4.478-10-10c0-5.523,4.477-10,10-10s10,4.477,10,10C288.941,99.887,284.465,104.365,278.941,104.365
		z M308.551,273.33h-18V127.031h18V273.33z M307.1,50.709c-5.523,0-10-4.477-10-10c0-5.523,4.477-10,10-10c5.523,0,10,4.477,10,10
		C317.1,46.232,312.623,50.709,307.1,50.709z M336.707,219.674h-18.156V73.375h18.156V219.674z"/>
</g>
<g>
</g>
<g>
</g>
<g>
</g>
<g>
</g>
<g>
</g>
<g>
</g>
<g>
</g>
<g>
</g>
<g>
</g>
<g>
</g>
<g>
</g>
<g>
</g>
<g>
</g>
<g>
</g>
<g>
</g>
</svg>
